<svg xmlns="http://www.w3.org/2000/svg" viewBox="0 0 420 52">
  <g fill="#101820">
    <path d="M13.473 45.09c5.26 0 9.75-1.862 13.473-5.585 1.883-1.883 3.29-3.933 4.22-6.152.931-2.218 1.396-4.67 1.396-7.353 0-5.238-1.872-9.729-5.616-13.473-3.744-3.744-8.235-5.616-13.473-5.616H6.915v38.178zm0-45.062c7.142 0 13.257 2.543 18.343 7.63 2.554 2.553 4.464 5.34 5.73 8.359 1.266 3.02 1.899 6.347 1.899 9.983 0 7.164-2.543 13.289-7.63 18.375-5.064 5.065-11.178 7.597-18.342 7.597h-10a3.34 3.34 0 0 1-1.347-.276 3.702 3.702 0 0 1-1.103-.73 3.358 3.358 0 0 1-.747-1.088A3.335 3.335 0 0 1 0 48.531V3.469c0-.476.092-.925.276-1.347.184-.422.433-.785.747-1.088a3.702 3.702 0 0 1 1.103-.73A3.335 3.335 0 0 1 3.474.028z"/>
    <path d="M50.97 6.91v20.648h6.558c1.407 0 2.732-.27 3.977-.811a10.507 10.507 0 0 0 5.52-5.487 9.89 9.89 0 0 0 .827-4.026c0-1.45-.276-2.802-.828-4.058a10.507 10.507 0 0 0-2.24-3.279 10.387 10.387 0 0 0-3.295-2.191 10.076 10.076 0 0 0-3.961-.795zm-6.882 41.62V3.47a3.5 3.5 0 0 1 .26-1.348c.172-.422.416-.79.73-1.104a3.376 3.376 0 0 1 1.087-.73 3.48 3.48 0 0 1 1.364-.26h9.999c1.558 0 3.068.206 4.529.617 1.46.411 2.83.995 4.107 1.753a18.078 18.078 0 0 1 3.506 2.71 16.882 16.882 0 0 1 2.71 3.49 17.992 17.992 0 0 1 1.754 4.108c.422 1.46.633 2.97.633 4.528 0 4.719-1.7 8.777-5.097 12.175-3.355 3.355-7.402 5.032-12.142 5.032H50.97v14.09c0 .952-.335 1.764-1.006 2.435a3.317 3.317 0 0 1-2.435 1.006 3.317 3.317 0 0 1-2.435-1.006 3.317 3.317 0 0 1-1.007-2.435z"/>
    <path d="M88.37 48.53c0 .953-.336 1.765-1.007 2.436a3.317 3.317 0 0 1-2.435 1.006 3.317 3.317 0 0 1-2.434-1.006 3.317 3.317 0 0 1-1.007-2.435V3.469c0-.952.336-1.764 1.007-2.435A3.317 3.317 0 0 1 84.928.028c.953 0 1.764.335 2.435 1.006a3.317 3.317 0 0 1 1.007 2.435z"/>
    <path d="M94.83 48.53V3.47c0-.477.087-.926.26-1.348.173-.422.417-.79.73-1.104a3.376 3.376 0 0 1 1.088-.73 3.48 3.48 0 0 1 1.364-.26c1.017 0 1.904.422 2.662 1.266l28.959 37.238V3.469c0-.952.335-1.764 1.006-2.435a3.317 3.317 0 0 1 2.435-1.006c.952 0 1.764.335 2.435 1.006a3.317 3.317 0 0 1 1.006 2.435v45.062c0 .498-.086.952-.26 1.363a3.376 3.376 0 0 1-.73 1.088 3.332 3.332 0 0 1-1.104.73c-.422.173-.871.26-1.347.26-1.017 0-1.894-.4-2.63-1.201l-28.991-37.238v34.998c0 .952-.336 1.764-1.007 2.435a3.317 3.317 0 0 1-2.434 1.006 3.317 3.317 0 0 1-2.435-1.006 3.317 3.317 0 0 1-1.007-2.435z"/>
    <path d="M162.552 51.972c-1.515 0-2.564-.725-3.149-2.175L141.97 5.222c-.26-.67-.39-1.255-.39-1.753 0-.476.087-.925.26-1.347.173-.422.416-.79.73-1.104a3.376 3.376 0 0 1 1.088-.73 3.48 3.48 0 0 1 1.363-.26c1.515 0 2.576.682 3.182 2.045l14.35 36.913 14.349-36.913c.52-1.363 1.58-2.045 3.181-2.045.477 0 .926.087 1.348.26a3.332 3.332 0 0 1 1.834 1.834c.173.422.26.871.26 1.347 0 .563-.13 1.147-.39 1.753l-17.434 44.575c-.584 1.45-1.634 2.175-3.149 2.175z"/>
    <path d="M221.769.028c.476 0 .925.087 1.347.26a3.332 3.332 0 0 1 1.834 1.834c.173.422.26.871.26 1.347 0 .498-.087.953-.26 1.364a3.376 3.376 0 0 1-.73 1.087 3.332 3.332 0 0 1-1.104.73c-.422.174-.871.26-1.347.26h-30.03a3.48 3.48 0 0 1-1.364-.26 3.376 3.376 0 0 1-1.088-.73 3.376 3.376 0 0 1-.73-1.087 3.48 3.48 0 0 1-.26-1.364c0-.476.087-.925.26-1.347.173-.422.416-.79.73-1.104a3.376 3.376 0 0 1 1.088-.73 3.48 3.48 0 0 1 1.363-.26zm0 45.061c.476 0 .925.087 1.347.26a3.332 3.332 0 0 1 1.834 1.834c.173.422.26.872.26 1.348 0 .498-.087.952-.26 1.363a3.376 3.376 0 0 1-.73 1.088 3.332 3.332 0 0 1-1.104.73c-.422.173-.871.26-1.347.26h-30.03a3.48 3.48 0 0 1-1.364-.26 3.376 3.376 0 0 1-1.088-.73 3.376 3.376 0 0 1-.73-1.088 3.48 3.48 0 0 1-.26-1.363c0-.476.087-.926.26-1.348.173-.422.416-.79.73-1.103a3.376 3.376 0 0 1 1.088-.73 3.48 3.48 0 0 1 1.363-.26zm-2.5-22.53c.476 0 .925.086 1.347.26a3.332 3.332 0 0 1 1.834 1.834c.173.422.26.87.26 1.347 0 .498-.087.952-.26 1.364a3.376 3.376 0 0 1-.73 1.087 3.332 3.332 0 0 1-1.104.73c-.422.174-.871.26-1.347.26h-25.063c-.801-.021-1.57-.357-2.305-1.006-.693-.628-1.04-1.44-1.04-2.435 0-.433.087-.855.26-1.266.174-.411.412-.774.715-1.088a3.71 3.71 0 0 1 1.055-.763c.4-.194.839-.303 1.315-.324z"/>
    <path d="M229.885 48.53V3.47a3.5 3.5 0 0 1 .26-1.348c.173-.422.416-.79.73-1.104a3.376 3.376 0 0 1 1.088-.73 3.48 3.48 0 0 1 1.363-.26c1.017 0 1.905.422 2.662 1.266l28.96 37.238V3.469a3.32 3.32 0 0 1 1.005-2.435 3.317 3.317 0 0 1 2.435-1.006c.953 0 1.764.335 2.435 1.006a3.317 3.317 0 0 1 1.007 2.435v45.062c0 .498-.087.952-.26 1.363a3.376 3.376 0 0 1-.73 1.088 3.332 3.332 0 0 1-1.104.73c-.422.173-.871.26-1.348.26-1.017 0-1.893-.4-2.63-1.201l-28.99-37.238v34.998c0 .952-.336 1.764-1.007 2.435a3.317 3.317 0 0 1-2.435 1.006 3.317 3.317 0 0 1-2.435-1.006 3.317 3.317 0 0 1-1.006-2.435z"/>
    <path d="M312.606 6.91h-12.824v41.62c0 .953-.335 1.765-1.006 2.436a3.317 3.317 0 0 1-2.435 1.006 3.317 3.317 0 0 1-2.435-1.006 3.317 3.317 0 0 1-1.007-2.435V6.911h-12.823a3.317 3.317 0 0 1-2.435-1.007 3.317 3.317 0 0 1-1.007-2.435c0-.952.336-1.764 1.007-2.435a3.317 3.317 0 0 1 2.435-1.006h32.53c.952 0 1.764.335 2.435 1.006a3.317 3.317 0 0 1 1.006 2.435c0 .953-.335 1.764-1.006 2.435a3.317 3.317 0 0 1-2.435 1.007z"/>
    <path d="M329.91 48.53c0 .953-.336 1.765-1.007 2.436a3.317 3.317 0 0 1-2.435 1.006 3.317 3.317 0 0 1-2.435-1.006 3.317 3.317 0 0 1-1.006-2.435V3.469c0-.952.335-1.764 1.006-2.435a3.317 3.317 0 0 1 2.435-1.006c.953 0 1.764.335 2.435 1.006a3.317 3.317 0 0 1 1.007 2.435z"/>
    <path d="M357.343 51.972c-1.516 0-2.565-.725-3.15-2.175L336.76 5.222c-.26-.67-.39-1.255-.39-1.753 0-.476.087-.925.26-1.347.173-.422.416-.79.73-1.104a3.376 3.376 0 0 1 1.088-.73 3.48 3.48 0 0 1 1.363-.26c1.515 0 2.576.682 3.182 2.045l14.35 36.913 14.349-36.913c.52-1.363 1.58-2.045 3.182-2.045.476 0 .925.087 1.347.26a3.332 3.332 0 0 1 1.834 1.834c.173.422.26.871.26 1.347 0 .563-.13 1.147-.39 1.753l-17.433 44.575c-.585 1.45-1.634 2.175-3.15 2.175z"/>
    <path d="M416.559.028c.476 0 .925.087 1.347.26a3.332 3.332 0 0 1 1.834 1.834c.173.422.26.871.26 1.347 0 .498-.087.953-.26 1.364a3.376 3.376 0 0 1-.73 1.087 3.332 3.332 0 0 1-1.104.73c-.422.174-.871.26-1.347.26h-30.03a3.48 3.48 0 0 1-1.364-.26 3.376 3.376 0 0 1-1.088-.73 3.376 3.376 0 0 1-.73-1.087 3.48 3.48 0 0 1-.26-1.364c0-.476.087-.925.26-1.347.173-.422.417-.79.73-1.104a3.376 3.376 0 0 1 1.088-.73 3.48 3.48 0 0 1 1.364-.26zm0 45.061c.476 0 .925.087 1.347.26a3.332 3.332 0 0 1 1.834 1.834c.173.422.26.872.26 1.348 0 .498-.087.952-.26 1.363a3.376 3.376 0 0 1-.73 1.088 3.332 3.332 0 0 1-1.104.73c-.422.173-.871.26-1.347.26h-30.03a3.48 3.48 0 0 1-1.364-.26 3.376 3.376 0 0 1-1.088-.73 3.376 3.376 0 0 1-.73-1.088 3.48 3.48 0 0 1-.26-1.363c0-.476.087-.926.26-1.348a3.33 3.33 0 0 1 .73-1.103 3.376 3.376 0 0 1 1.088-.73 3.48 3.48 0 0 1 1.364-.26zm-2.5-22.53c.476 0 .925.086 1.347.26a3.332 3.332 0 0 1 1.834 1.834c.174.422.26.87.26 1.347 0 .498-.086.952-.26 1.364a3.376 3.376 0 0 1-.73 1.087 3.332 3.332 0 0 1-1.104.73c-.422.174-.87.26-1.347.26h-25.063c-.8-.021-1.57-.357-2.305-1.006-.693-.628-1.039-1.44-1.039-2.435 0-.433.087-.855.26-1.266a3.5 3.5 0 0 1 .714-1.088 3.71 3.71 0 0 1 1.055-.763c.4-.194.839-.303 1.315-.324z"/>
  </g>
</svg>